<svg width="512" height="512" viewBox="0 0 512 512" fill="none" xmlns="http://www.w3.org/2000/svg">
<rect width="512" height="512" rx="23" fill="#123154" style="fill:#123154;fill:color(display-p3 0.0706 0.1922 0.3294);fill-opacity:1;"/>
<rect x="128" y="61" width="295" height="389" fill="#E5E5E5" style="fill:#E5E5E5;fill:color(display-p3 0.8964 0.8964 0.8964);fill-opacity:1;"/>
<g clip-path="url(#clip0_391_393)">
<rect width="326" height="408" transform="translate(119 51)" fill="white" style="fill:white;fill-opacity:1;"/>
<path d="M234.205 51C303.767 51 373.33 51 445 51C445 186.209 445 321.418 445 460.724C375.438 460.724 305.875 460.724 234.205 460.724C234.205 438.599 234.205 416.474 234.205 393.678C235.044 394.516 235.56 395.37 236.139 396.386C238.9 401.088 242.59 405.26 246.914 408.577C247.331 408.913 247.331 408.913 247.756 409.255C249.934 410.996 252.219 412.455 254.649 413.82C254.831 413.923 255.014 414.027 255.202 414.133C273.543 424.472 296.654 425.264 316.653 419.763C318.004 419.372 319.342 418.95 320.678 418.51C320.955 418.419 321.231 418.329 321.516 418.236C332.373 414.627 342.428 409.111 351.344 401.956C351.6 401.753 351.855 401.551 352.119 401.342C353.77 400.018 355.34 398.622 356.891 397.183C357.642 396.489 358.402 395.807 359.166 395.127C360.823 393.639 362.36 392.094 363.813 390.407C364.365 389.774 364.934 389.158 365.503 388.54C384.191 367.795 393.814 339.127 393.803 304.446C392.417 279.761 383.836 255.679 368.197 236.41C367.991 236.152 367.785 235.893 367.573 235.626C365.146 232.603 362.468 229.835 359.738 227.087C359.35 226.696 358.964 226.305 358.577 225.913C356.897 224.233 355.14 222.71 353.278 221.236C352.931 220.953 352.585 220.669 352.24 220.385C348.031 216.963 343.609 214.014 338.912 211.303C338.595 211.118 338.595 211.118 338.272 210.93C328.26 205.116 317.155 201.572 305.759 199.715C305.312 199.64 305.312 199.64 304.855 199.565C285.934 196.576 264.435 200.066 248.753 211.438C246.631 213.013 244.672 214.713 242.769 216.545C242.474 216.819 242.474 216.819 242.172 217.099C239.475 219.664 237.48 222.75 235.544 225.899C235.41 226.118 235.275 226.336 235.136 226.561C235.017 226.758 234.897 226.954 234.773 227.157C234.629 227.367 234.629 227.367 234.481 227.581C234.39 227.581 234.299 227.581 234.205 227.581C234.205 169.31 234.205 111.038 234.205 51Z" fill="#123154" style="fill:#123154;fill:color(display-p3 0.0706 0.1922 0.3294);fill-opacity:1;"/>
<path d="M119 51C136.231 51 153.462 51 171.215 51C171.215 186.209 171.215 321.418 171.215 460.724C153.984 460.724 136.753 460.724 119 460.724C119 325.515 119 190.306 119 51Z" fill="#123154" style="fill:#123154;fill:color(display-p3 0.0706 0.1922 0.3294);fill-opacity:1;"/>
<path d="M278.328 257.599C278.659 257.597 278.659 257.597 278.996 257.594C288.181 257.531 288.181 257.531 292.222 258.483C292.577 258.563 292.577 258.563 292.939 258.645C300.762 260.45 308.087 264.004 313.982 269.496C314.56 270.034 315.153 270.545 315.757 271.054C319.006 273.898 321.584 277.662 323.717 281.384C323.815 281.551 323.913 281.719 324.013 281.891C331.473 294.776 333.154 311.178 329.381 325.487C327.706 331.426 325.01 336.93 321.231 341.808C321.036 342.064 320.841 342.32 320.64 342.584C312.594 352.802 300.686 358.503 287.918 360.113C285.751 360.363 283.592 360.391 281.413 360.38C281.203 360.379 280.993 360.379 280.777 360.378C268.186 360.328 256.338 356.163 247.276 347.257C244.135 344.089 241.775 340.514 239.731 336.565C239.598 336.312 239.598 336.312 239.463 336.053C232.422 322.369 232.599 304.422 237.053 289.972C238.868 284.351 241.363 279.167 244.98 274.486C245.282 274.091 245.282 274.091 245.59 273.688C252.674 264.75 263.27 259.123 274.588 257.788C275.837 257.652 277.072 257.607 278.328 257.599Z" fill="#123154" style="fill:#123154;fill:color(display-p3 0.0706 0.1922 0.3294);fill-opacity:1;"/>
</g>
<defs>
<clipPath id="clip0_391_393">
<rect width="326" height="408" fill="white" style="fill:white;fill-opacity:1;" transform="translate(119 51)"/>
</clipPath>
</defs>
</svg>
